<?xml version="1.0" encoding="UTF-8" standalone="no"?>
<!-- Created with Inkscape (http://www.inkscape.org/) -->

<svg
   width="128.00000pt"
   height="128.00000pt"
   id="svg1468"
   sodipodi:version="0.32"
   inkscape:version="1.2.2 (b0a8486541, 2022-12-01)"
   sodipodi:docname="zoom.svg"
   inkscape:export-filename="zoomin.png"
   inkscape:export-xdpi="18"
   inkscape:export-ydpi="18"
   version="1.1"
   xmlns:inkscape="http://www.inkscape.org/namespaces/inkscape"
   xmlns:sodipodi="http://sodipodi.sourceforge.net/DTD/sodipodi-0.dtd"
   xmlns:xlink="http://www.w3.org/1999/xlink"
   xmlns="http://www.w3.org/2000/svg"
   xmlns:svg="http://www.w3.org/2000/svg"
   xmlns:rdf="http://www.w3.org/1999/02/22-rdf-syntax-ns#"
   xmlns:cc="http://creativecommons.org/ns#"
   xmlns:dc="http://purl.org/dc/elements/1.1/">
  <defs
     id="defs3">
    <linearGradient
       id="linearGradient7591">
      <stop
         style="stop-color:#3cff00;stop-opacity:1.0000000;"
         offset="0.0000000"
         id="stop7593" />
      <stop
         style="stop-color:#1c470f;stop-opacity:1.0000000;"
         offset="1.0000000"
         id="stop7595" />
    </linearGradient>
    <linearGradient
       id="linearGradient5307">
      <stop
         style="stop-color:#e1ffff;stop-opacity:0.74117649;"
         offset="0.0000000"
         id="stop5309" />
      <stop
         style="stop-color:#afe6ff;stop-opacity:0.65882355;"
         offset="1.0000000"
         id="stop5311" />
    </linearGradient>
    <linearGradient
       id="linearGradient4542">
      <stop
         style="stop-color:#717171;stop-opacity:1.0000000;"
         offset="0.0000000"
         id="stop4544" />
      <stop
         style="stop-color:#1c1c1c;stop-opacity:1.0000000;"
         offset="1.0000000"
         id="stop4546" />
    </linearGradient>
    <linearGradient
       id="linearGradient3768">
      <stop
         style="stop-color:#9f9f9f;stop-opacity:1.0000000;"
         offset="0.0000000"
         id="stop3770" />
      <stop
         style="stop-color:#494949;stop-opacity:1.0000000;"
         offset="1.0000000"
         id="stop3772" />
    </linearGradient>
    <linearGradient
       inkscape:collect="always"
       xlink:href="#linearGradient3768"
       id="linearGradient3774"
       gradientTransform="matrix(1.0587205,0,0,0.61199797,32.668379,29.528796)"
       x1="17.216179"
       y1="60.447464"
       x2="59.329948"
       y2="81.568985"
       gradientUnits="userSpaceOnUse" />
    <linearGradient
       inkscape:collect="always"
       xlink:href="#linearGradient4542"
       id="linearGradient4540"
       gradientTransform="matrix(1.0874242,0,0,0.59584364,32.668379,29.528796)"
       x1="1.9051772"
       y1="37.666012"
       x2="69.858246"
       y2="37.666012"
       gradientUnits="userSpaceOnUse" />
    <radialGradient
       inkscape:collect="always"
       xlink:href="#linearGradient5307"
       id="radialGradient5315"
       gradientTransform="matrix(0.93390833,0,0,0.69378809,32.668379,29.528796)"
       cx="41.961208"
       cy="51.008999"
       fx="41.961208"
       fy="51.008999"
       r="39.440468"
       gradientUnits="userSpaceOnUse" />
    <linearGradient
       inkscape:collect="always"
       xlink:href="#linearGradient7591"
       id="linearGradient7597"
       gradientTransform="matrix(1.239690,0.000000,0.000000,1.160451,7.041127,-0.418621)"
       x1="71.189911"
       y1="123.00367"
       x2="109.37925"
       y2="106.20147"
       gradientUnits="userSpaceOnUse" />
    <radialGradient
       gradientUnits="userSpaceOnUse"
       r="25.698910"
       fy="120.32793"
       fx="86.700439"
       cy="120.32793"
       cx="86.700439"
       gradientTransform="matrix(0.85393998,0,0,0.75875932,31.218519,33.345552)"
       id="radialGradient4376"
       xlink:href="#linearGradient7591"
       inkscape:collect="always" />
    <radialGradient
       r="25.698910"
       fy="120.32793"
       fx="86.700439"
       cy="120.32793"
       cx="86.700439"
       gradientTransform="matrix(1.272423,0.000000,0.000000,1.130598,-316.2223,-34.98937)"
       gradientUnits="userSpaceOnUse"
       id="radialGradient4386"
       xlink:href="#linearGradient7591"
       inkscape:collect="always" />
    <linearGradient
       y2="106.20147"
       x2="109.37925"
       y1="123.00367"
       x1="71.189911"
       gradientTransform="matrix(1.239690,0.000000,0.000000,1.160451,-308.9850,-38.64581)"
       gradientUnits="userSpaceOnUse"
       id="linearGradient4388"
       xlink:href="#linearGradient7591"
       inkscape:collect="always" />
    <linearGradient
       y2="106.20147"
       x2="109.37925"
       y1="123.00367"
       x1="71.189911"
       gradientTransform="matrix(0.83197251,0,0,0.77879405,36.075548,30.891665)"
       gradientUnits="userSpaceOnUse"
       id="linearGradient5167"
       xlink:href="#linearGradient7591"
       inkscape:collect="always" />
    <linearGradient
       y2="37.666012"
       x2="69.858246"
       y1="37.666012"
       x1="1.9051772"
       gradientTransform="matrix(1.606870,0.000000,0.000000,0.880469,184.4214,-2.957098)"
       gradientUnits="userSpaceOnUse"
       id="linearGradient5185"
       xlink:href="#linearGradient4542"
       inkscape:collect="always" />
    <radialGradient
       r="39.440468"
       fy="51.008999"
       fx="41.961208"
       cy="51.008999"
       cx="41.961208"
       gradientTransform="matrix(1.380022,0.000000,0.000000,1.025200,184.4214,-2.957098)"
       gradientUnits="userSpaceOnUse"
       id="radialGradient5187"
       xlink:href="#linearGradient5307"
       inkscape:collect="always" />
    <linearGradient
       y2="81.568985"
       x2="59.329948"
       y1="60.447464"
       x1="17.216179"
       gradientTransform="matrix(1.564455,0.000000,0.000000,0.904340,184.4214,-2.957098)"
       gradientUnits="userSpaceOnUse"
       id="linearGradient5189"
       xlink:href="#linearGradient3768"
       inkscape:collect="always" />
    <linearGradient
       y2="106.20147"
       x2="109.37925"
       y1="123.00367"
       x1="71.189911"
       gradientTransform="matrix(1.229393,0.000000,0.000000,1.150812,189.4561,-0.943208)"
       gradientUnits="userSpaceOnUse"
       id="linearGradient5191"
       xlink:href="#linearGradient7591"
       inkscape:collect="always" />
    <radialGradient
       r="25.698910"
       fy="120.32793"
       fx="86.700439"
       cy="120.32793"
       cx="86.700439"
       gradientTransform="matrix(1.261854,0.000000,0.000000,1.121207,182.2790,2.682863)"
       gradientUnits="userSpaceOnUse"
       id="radialGradient5193"
       xlink:href="#linearGradient7591"
       inkscape:collect="always" />
  </defs>
  <sodipodi:namedview
     id="base"
     pagecolor="#ffffff"
     bordercolor="#666666"
     borderopacity="1.0"
     inkscape:pageopacity="0.0"
     inkscape:pageshadow="2"
     inkscape:zoom="2.64375"
     inkscape:cx="92.671395"
     inkscape:cy="33.475177"
     inkscape:document-units="px"
     inkscape:current-layer="layer1"
     showguides="true"
     inkscape:guide-bbox="true"
     inkscape:window-width="1272"
     inkscape:window-height="966"
     inkscape:window-x="891"
     inkscape:window-y="177"
     inkscape:showpageshadow="2"
     inkscape:pagecheckerboard="0"
     inkscape:deskcolor="#d1d1d1"
     showgrid="false"
     inkscape:window-maximized="0" />
  <metadata
     id="metadata4">
    <rdf:RDF>
      <cc:Work
         rdf:about="">
        <dc:format>image/svg+xml</dc:format>
        <dc:type
           rdf:resource="http://purl.org/dc/dcmitype/StillImage" />
      </cc:Work>
    </rdf:RDF>
  </metadata>
  <g
     inkscape:label="Layer 1"
     inkscape:groupmode="layer"
     id="layer1">
    <path
       style="fill:#000000;fill-opacity:0.698039;fill-rule:evenodd;stroke:none;stroke-width:1.35347;stroke-linecap:butt;stroke-linejoin:miter;stroke-miterlimit:4;stroke-opacity:1"
       d="m 36.36004,56.482761 c -1.115384,10.928223 -0.414825,19.221771 6.959945,27.845745 5.728571,6.698916 18.127192,13.828632 31.763708,15.609236 11.908016,1.554888 23.875254,-1.181006 31.237297,-8.397548 6.01664,-5.897751 4.73814,-19.613402 2.89814,-27.528502 C 109.42575,75.47148 107.7826,84.922003 85.611176,88.794843 72.697093,91.050637 41.997973,80.343336 36.36004,56.482761 Z"
       id="path9917"
       sodipodi:nodetypes="cssscsc" />
    <path
       sodipodi:nodetypes="ccssccc"
       d="M 51.917626,45.640455 C 40.470032,48.420414 37.630251,53.943787 37.018518,58.903281 32.43155,46.275369 39.503503,39.090963 45.245094,36.619561 57.918785,31.16432 70.665874,31.881289 80.619702,34.646255 91.270562,37.604844 113.76295,50.347425 106.36365,71.411638 106.79436,65.85382 102.95696,61.430105 98.428054,57.039565 84.289303,43.332735 72.192972,40.716759 51.917626,45.640455 Z"
       style="fill:url(#linearGradient4540);fill-opacity:1;fill-rule:evenodd;stroke:#000000;stroke-width:1.60989;stroke-linecap:butt;stroke-linejoin:bevel;stroke-miterlimit:4;stroke-opacity:1"
       id="path2248" />
    <path
       sodipodi:nodetypes="ccccc"
       d="M 51.609015,40.623341 C 28.713824,46.183259 34.633073,67.481858 44.981366,77.203979 58.851491,90.234867 74.971362,94.66195 94.904071,89.162893 114.20892,83.837011 108.647,60.971382 99.589205,52.190302 85.450444,38.483473 71.88436,35.699644 51.609015,40.623341 Z"
       style="fill:url(#radialGradient5315);fill-opacity:1;fill-rule:evenodd;stroke:#4b7499;stroke-width:1.60989;stroke-linecap:butt;stroke-linejoin:miter;stroke-miterlimit:4;stroke-opacity:1"
       id="path18903" />
    <path
       sodipodi:nodetypes="ccccccc"
       id="path4382"
       d="m 85.68809,100.15392 24.96721,36.24537 0.0419,-0.021 c 2.47199,3.83734 7.42895,4.48812 13.96755,1.65682 6.61801,-2.86567 12.43046,-9.81062 10.84268,-15.10006 L 102.56586,98.05022 Z"
       style="fill:#000000;fill-opacity:0.698039;fill-rule:evenodd;stroke:none;stroke-width:1.62337;stroke-linecap:butt;stroke-linejoin:bevel;stroke-miterlimit:4;stroke-opacity:1" />
    <path
       style="fill:url(#linearGradient3774);fill-opacity:1;fill-rule:evenodd;stroke:#000000;stroke-width:1.60989;stroke-linecap:butt;stroke-linejoin:miter;stroke-miterlimit:4;stroke-opacity:1"
       d="m 35.499961,51.320074 c -1.101015,11.528287 -0.409481,20.277229 6.870292,29.374741 5.654774,7.06675 17.893677,14.587959 31.354535,16.46632 11.754621,1.640271 23.567695,-1.245836 30.834892,-8.858642 5.93915,-6.221593 4.67714,-20.690365 2.86083,-29.040078 0.20395,12.089039 -1.41802,22.058486 -23.303851,26.143981 -12.747727,2.379658 -43.05139,-8.915574 -48.616698,-34.086322 z"
       id="path2250"
       sodipodi:nodetypes="cssscsc" />
    <path
       style="fill:url(#linearGradient5167);fill-opacity:1;fill-rule:evenodd;stroke:#000000;stroke-width:1.60989;stroke-linecap:butt;stroke-linejoin:bevel;stroke-miterlimit:4;stroke-opacity:1"
       d="m 85.170469,95.572893 25.773551,37.764567 24.00006,-15.38278 -32.1862,-28.886718 C 101.23955,83.3146 87.796126,86.334703 85.170469,95.572893 Z"
       id="path2244"
       sodipodi:nodetypes="ccccc" />
    <path
       style="fill:url(#radialGradient4376);fill-opacity:1;fill-rule:evenodd;stroke:#000000;stroke-width:1.60989;stroke-linecap:butt;stroke-linejoin:bevel;stroke-miterlimit:4;stroke-opacity:1"
       d="m 110.8181,133.08761 c -2.88061,-4.83937 5.32765,-16.49476 11.453,-18.32318 8.43536,-2.51795 12.3787,1.31166 13.51589,5.09999 1.58778,5.28943 -4.23053,12.23811 -10.84853,15.10378 -6.67807,2.89168 -11.70424,2.17846 -14.12036,-1.88059 z"
       id="path2246"
       sodipodi:nodetypes="cssss" />
    <path
       sodipodi:nodetypes="ccccccccccccc"
       id="path1340"
       d="m 51.984512,62.354304 c 4.131696,-2.561652 8.387342,-4.50355 13.138798,-5.45384 -2.148482,-3.491284 -5.412523,-6.858618 -8.676565,-9.172368 3.966429,-1.77663 6.569396,-2.561653 11.155578,-2.726921 3.84248,2.272435 6.507425,4.730793 8.924468,8.428662 3.677212,-2.02453 6.982566,-3.305356 11.031636,-3.470625 3.264034,2.189799 5.536471,4.875403 7.560999,8.304711 -4.544868,-0.247901 -7.354417,0.867657 -11.403479,2.974822 4.338278,3.387993 7.189149,6.899934 9.296317,11.279534 -4.131696,0.661071 -8.387349,1.941897 -12.02324,4.214331 -2.231116,-4.09038 -4.834084,-7.932859 -8.428662,-10.78373 -4.544868,0.661071 -9.957391,2.685603 -13.758551,5.32989 -1.404775,-3.346675 -3.801161,-6.569399 -6.817299,-8.924466 z"
       style="fill:#003297;fill-opacity:0.874699;fill-rule:evenodd;stroke:#020032;stroke-width:2.41483;stroke-linecap:butt;stroke-linejoin:miter;stroke-miterlimit:4;stroke-opacity:0.749398" />
    <path
       sodipodi:nodetypes="ccccc"
       id="path5183"
       d="M 51.428645,62.354304 C 66.60145,54.091095 74.89891,51.753497 87.002555,49.959212 c 3.264039,2.189799 5.536472,4.875403 7.561005,8.304711 -16.309983,2.557626 -22.651864,4.759505 -36.317621,13.014847 -1.404772,-3.346675 -3.801156,-6.569399 -6.817294,-8.924466 z"
       style="fill:#003297;fill-opacity:0.874699;fill-rule:evenodd;stroke:#020032;stroke-width:2.41483;stroke-linecap:butt;stroke-linejoin:miter;stroke-miterlimit:4;stroke-opacity:0.749398" />
  </g>
</svg>
